<svg xmlns="http://www.w3.org/2000/svg" xmlns:xlink="http://www.w3.org/1999/xlink" version="1.1" style="enable-background:new 0 0 512 512;" xml:space="preserve" width="512" height="512"><rect id="backgroundrect" width="100%" height="100%" x="0" y="0" fill="none" stroke="none"/>































<g class="currentLayer" style=""><title>Layer 1</title><circle style="" cx="256" cy="256" r="256" id="svg_1" class="" fill-opacity="1" fill="#ff7058"/><path style="" d="M165.178,495.401C193.405,506.116,224.013,512,256,512c141.384,0,256-114.616,256-256  c0-1.862-0.031-3.718-0.071-5.57L351.315,90.788l-120.732,35.43l122.49,105.094L71.542,401.767L165.178,495.401z" id="svg_2" class="" fill-opacity="1" fill="#ff7058"/><rect x="71.54199981689453" y="178.40699768066406" style="" width="128.86199951171875" height="223.36599731445312" id="svg_3" class="" fill-opacity="1" fill="#324a5e"/><g id="svg_4">
	<rect x="93.01899719238281" y="202.3520050048828" style="fill:#FFEDB5;" width="34.362998962402344" height="31.23699951171875" id="svg_5"/>
	<rect x="144.56700134277344" y="202.3520050048828" style="fill:#FFEDB5;" width="34.362998962402344" height="31.23699951171875" id="svg_6"/>
	<rect x="93.01899719238281" y="249.20799255371094" style="fill:#FFEDB5;" width="34.362998962402344" height="31.23699951171875" id="svg_7"/>
	<rect x="144.56700134277344" y="249.20799255371094" style="fill:#FFEDB5;" width="34.362998962402344" height="31.23699951171875" id="svg_8"/>
	<rect x="93.01899719238281" y="296.08099365234375" style="fill:#FFEDB5;" width="34.362998962402344" height="31.23699951171875" id="svg_9"/>
	<rect x="144.56700134277344" y="296.08099365234375" style="fill:#FFEDB5;" width="34.362998962402344" height="31.23699951171875" id="svg_10"/>
	<rect x="118.79100036621094" y="350.22900390625" style="fill:#FFEDB5;" width="34.362998962402344" height="51.54499816894531" id="svg_11"/>
</g><rect x="311.59600830078125" y="178.40699768066406" style="" width="128.86199951171875" height="223.36599731445312" id="svg_12" class="" fill-opacity="1" fill="#324a5e"/><g id="svg_13" class="">
	<rect x="333.07598876953125" y="202.3520050048828" style="fill:#FFEDB5;" width="34.362998962402344" height="31.23699951171875" id="svg_14"/>
	<rect x="384.6210021972656" y="202.3520050048828" style="fill:#FFEDB5;" width="34.362998962402344" height="31.23699951171875" id="svg_15"/>
	<rect x="333.07598876953125" y="249.20799255371094" style="fill:#FFEDB5;" width="34.362998962402344" height="31.23699951171875" id="svg_16"/>
	<rect x="384.6210021972656" y="249.20799255371094" style="fill:#FFEDB5;" width="34.362998962402344" height="31.23699951171875" id="svg_17"/>
	<rect x="333.07598876953125" y="296.08099365234375" style="fill:#FFEDB5;" width="34.362998962402344" height="31.23699951171875" id="svg_18"/>
	<rect x="384.6210021972656" y="296.08099365234375" style="fill:#FFEDB5;" width="34.362998962402344" height="31.23699951171875" id="svg_19"/>
	<rect x="358.8479919433594" y="350.22900390625" style="fill:#FFEDB5;" width="34.362998962402344" height="51.54499816894531" id="svg_20"/>
</g><rect x="160.68499755859375" y="90.78800201416016" style="fill:#E03A00;" width="190.6300048828125" height="330.4209899902344" id="svg_21"/><rect x="255.43099975585938" y="90.78800201416016" style="fill:#940030;" width="95.88899993896484" height="330.4209899902344" id="svg_22"/><rect x="192.45700073242188" y="126.2239990234375" style="fill:#FFD9D4;" width="50.834999084472656" height="46.2130012512207" id="svg_23"/><rect x="268.7049865722656" y="126.2239990234375" style="fill:#FF6262;" width="50.834999084472656" height="46.2130012512207" id="svg_24"/><rect x="192.45700073242188" y="195.54299926757812" style="fill:#FFD9D4;" width="50.834999084472656" height="46.2130012512207" id="svg_25"/><rect x="268.7049865722656" y="195.54299926757812" style="fill:#FF6262;" width="50.834999084472656" height="46.2130012512207" id="svg_26"/><rect x="192.45700073242188" y="264.8609924316406" style="fill:#FFD9D4;" width="50.834999084472656" height="46.2130012512207" id="svg_27"/><rect x="268.7049865722656" y="264.8609924316406" style="fill:#FF6262;" width="50.834999084472656" height="46.2130012512207" id="svg_28"/><rect x="230.58999633789062" y="344.9540100097656" style="fill:#FFD9D4;" width="50.834999084472656" height="76.24800109863281" id="svg_29"/><rect x="255.43099975585938" y="344.9540100097656" style="fill:#FF6262;" width="25.996999740600586" height="76.24800109863281" id="svg_30"/><g id="svg_31">
</g><g id="svg_32">
</g><g id="svg_33">
</g><g id="svg_34">
</g><g id="svg_35">
</g><g id="svg_36">
</g><g id="svg_37">
</g><g id="svg_38">
</g><g id="svg_39">
</g><g id="svg_40">
</g><g id="svg_41">
</g><g id="svg_42">
</g><g id="svg_43">
</g><g id="svg_44">
</g><g id="svg_45">
</g></g></svg>