<svg xmlns="http://www.w3.org/2000/svg" xmlns:xlink="http://www.w3.org/1999/xlink" version="1.1" style="enable-background:new 0 0 512 512;" xml:space="preserve" width="512" height="512"><rect id="backgroundrect" width="100%" height="100%" x="0" y="0" fill="none" stroke="none"/>































<g class="currentLayer" style=""><title>Layer 1</title><circle style="" cx="256" cy="256" r="256" id="svg_1" class="" fill-opacity="1" fill="#ff7058"/><path style="" d="M149.79338410186767,473.0933065185547 C178.02038410186768,483.8083065185547 208.62838410186768,489.6923065185547 240.61538410186768,489.6923065185547 c141.384,0 256,-114.616 256,-256 c0,-1.862 -0.031000000000000007,-3.718 -0.07100000000000001,-5.57 L335.9303841018677,68.48030651855468 l-120.732,35.43 l122.49,105.094 L56.15738410186768,379.4593065185547 L149.79338410186767,473.0933065185547 z" id="svg_2" class="" fill-opacity="1" fill="#ff7058"/><rect x="71.54199981689453" y="178.40699768066406" style="" width="128.86199951171875" height="223.36599731445312" id="svg_3" class="" fill-opacity="1" fill="#324a5e"/><rect x="305.442138671875" y="179.94545936584473" style="" width="128.86199951171875" height="223.36599731445312" id="svg_12" class="" fill-opacity="1" fill="#324a5e"/><rect x="159.14653606310236" y="153.86492806625006" style="fill:#E03A00;" width="193.7069162654859" height="267.34403543476185" id="svg_21" class=""/><rect x="258.50792282819793" y="155.40338770352355" style="fill:#940030;" width="95.88900204416589" height="263.49791999156463" id="svg_22" class=""/><rect x="192.45700073242188" y="220.0701540708542" style="fill:#FFD9D4;" width="50.834999084472656" height="46.2130012512207" id="svg_23" class=""/><rect x="271.01267886161804" y="218.53169465065002" style="fill:#FF6262;" width="50.834999084472656" height="46.2130012512207" id="svg_24" class=""/><rect x="233.66691958904266" y="344.1847801208496" style="fill:#FFD9D4;" width="50.834999084472656" height="76.24800109863281" id="svg_29" class=""/><rect x="260.0463843345642" y="344.184777200222" style="fill:#FF6262;" width="25.996999740600586" height="76.24800109863281" id="svg_30" class=""/><g id="svg_31">
</g><g id="svg_32">
</g><g id="svg_33">
</g><g id="svg_34">
</g><g id="svg_35">
</g><g id="svg_36">
</g><g id="svg_37">
</g><g id="svg_38">
</g><g id="svg_39">
</g><g id="svg_40">
</g><g id="svg_41">
</g><g id="svg_42">
</g><g id="svg_43">
</g><g id="svg_44">
</g><g id="svg_45">
</g><rect fill="#e7e767" stroke-dashoffset="" fill-rule="nonzero" id="svg_25" x="364.0000035762787" y="218.76923179626465" width="56" height="45" style="color: rgb(206, 68, 77);" class="" fill-opacity="1"/><rect fill="#e7e767" stroke-dashoffset="" fill-rule="nonzero" x="90.9230706691742" y="224.15384674072266" width="56" height="45" style="color: rgb(206, 68, 77);" class="" fill-opacity="1" id="svg_28"/></g></svg>