<svg xmlns="http://www.w3.org/2000/svg" xmlns:xlink="http://www.w3.org/1999/xlink" version="1.1" style="enable-background:new 0 0 512 512;" xml:space="preserve" width="512" height="512"><rect id="backgroundrect" width="100%" height="100%" x="0" y="0" fill="none" stroke="none"/>





















<g class="currentLayer" style=""><title>Layer 1</title><circle style="" cx="254.46153259277344" cy="256.3846201789208" r="254.46153259277344" id="svg_1" class="" fill="#ff7058" fill-opacity="1"/><g id="svg_2" class="" fill-opacity="1" fill="#ff7058">
	<path style="" d="M505.7321537361145,257.2311537361145 l-90.391,-90.391 L107.62415373611451,392.0681537361145 L219.6161537361145,504.0601537361145 C229.5311537361145,505.2271537361145 239.6161537361145,505.8461537361145 249.8461537361145,505.8461537361145 C388.7601537361145,505.8461537361145 501.8221537361145,395.2011537361145 505.7321537361145,257.2311537361145 z" id="svg_3" fill="#ff7058"/>
	<polygon style="" points="84.35115098953247,199.93915605545044 135.16315507888794,250.75115251541138 135.16315507888794,164.51316118240356 " id="svg_4" fill="#ff7058"/>
</g><polygon style="fill:#FFAD9E;" points="395.91429257392883,399.7604464292526 111.47030758857727,399.7604464292526 111.47030758857727,172.20546901226044 253.69230771064758,115.31646144390106 395.91429257392883,172.20546901226044 " id="svg_5" class=""/><g id="svg_7" class="" stroke-opacity="1" stroke="#345e82" fill-opacity="1" fill="#324a5e">
	<polygon style="" points="418.4180603027344,174.60277658527502 252.92306518554688,109.10369434677523 87.42807006835938,174.60277658527502 87.42807006835938,207.35231015568297 252.92306518554688,141.85324301486708 418.4180603027344,207.35231015568297 " id="svg_8" stroke="#345e82" fill="#324a5e"/>
	<rect x="196.03408813476562" y="284.8760681152344" style="" width="113.77799987792969" height="112.57671356201172" id="svg_9" stroke="#345e82" fill="#324a5e"/>
</g><g id="svg_13">
</g><g id="svg_14">
</g><g id="svg_15">
</g><g id="svg_16">
</g><g id="svg_17">
</g><g id="svg_18">
</g><g id="svg_19">
</g><g id="svg_20">
</g><g id="svg_21">
</g><g id="svg_22">
</g><g id="svg_23">
</g><g id="svg_24">
</g><g id="svg_25">
</g><g id="svg_26">
</g><g id="svg_27">
</g></g></svg>